<svg xmlns="http://www.w3.org/2000/svg" width="736.458" height="520.768" viewBox="0 0 194.85452 137.78644"><path d="M0 99.124V78.206l25.02-11.35L60.67 60.77l18.796-16.79 1.048 15.068 21.366-22.158 21.657 20.392-1.26-12.898L176.034 0l-11.37 17.2-14.434 15.78 18.39-3.058-22.14 13.174 6.17 1.755 42.205-6.28-32.152 1.61 13.432-7.39 18.72 5.78-55.3 17.403 48.487-4.752-11.836 15.148-36.652-10.395 22.24 11.566-30.143 16.09-5.93 16.503-51.237 8.93L63.6 125.926s-16.608 2.227-16.637 2.135l-29.238 9.724zm71.74 2.668l16.605-26.584-17.566 21.91L50.39 90.38zm44.852-20.927l15.06 2.766-24.028-7.792 18.096 24.295zm-66.2 9.517l10.28-29.61L47.655 86.62 20.14 90.418zm57.232-14.544l15.915-18.554-35.195 17.924zm38.856-32.742c1.303-3.6 3.75-10.117 3.75-10.117l-27.95 11.406zm22.14-13.174l3.868-12.16 10.618-2.338z" fill="#e5453c" fill-opacity=".854"/><path d="M.044 87.048l7.058-12.154 11.5 15.883L.03 96.47z" fill="none"/><path d="M0 99.124l18.6-8.347L0 78.207z" fill="none"/><path d="M7.102 74.894l11.5 15.883L0 99.124V78.206z" fill="none"/><path d="M0 78.206l7.102-3.312 11.5 15.883z" fill="none"/><path d="M.044 87.048l7.288-12.17L0 78.206z" fill="#e64638"/><path d="M7.332 74.878l12.81 15.54L0 99.124l.044-12.076z" fill="#ce3f35"/><path d="M0 99.124l12.442 5.46 7.7-14.166z" fill="#9a2e1c"/><path d="M12.442 104.585l13.657 2.853L50.39 90.382l-30.25.036z" fill="#982d1b" fill-opacity=".995"/><path d="M0 99.124l6.975 15.205 5.467-9.745z" fill="none"/><path d="M6.975 114.33l5.467-9.745L0 99.125z" fill="#e6463d"/><path d="M6.975 114.33l1.587 3.456L26.1 107.438l-13.658-2.853z" fill="none"/><path d="M26.1 107.438l-13.466 19.31-4.072-8.962z" fill="#9a2e1c"/><path d="M6.975 114.33l1.587 3.456L26.1 107.438l-13.658-2.853z" fill="#ce4035"/><path d="M12.634 126.75L26.1 107.437l20.863 20.624-32.53 2.552z" fill="#d34036"/><path d="M14.432 130.614l3.293 7.172 29.238-9.724z" fill="#982d1b"/><path d="M46.963 128.062L26.1 107.438l45.64-5.646z" fill="#a33222"/><path d="M71.74 101.792l-8.14 24.135-16.637 2.135z" fill="none"/><path d="M71.74 101.792l2.743 7.27L63.6 125.927l8.14-24.135" fill="#992d1b"/><path d="M71.74 101.792l2.743 7.27 51.237-8.93z" fill="#922a16"/><path d="M46.963 128.062l16.638-2.135 8.14-24.135z" fill="#7e1f00" fill-opacity=".981"/><path d="M71.74 101.792l35.884-25.954 18.096 24.295z" fill="#d34137" fill-opacity=".935"/><path d="M107.624 75.838l-19.28-.63-16.604 26.584 35.884-25.954" fill="#e6463d"/><path d="M26.1 107.438L50.39 90.382l21.348 11.41z" fill="#cf4034"/><path d="M50.392 90.382l37.953-15.174-17.566 21.91z" fill="#992d1b"/><path d="M88.345 75.208L60.672 60.772l-10.28 29.61z" fill="#ce4035"/><path d="M20.14 90.418l40.532-29.646-35.653 6.083L7.33 74.878z" fill="#a43222" fill-opacity=".899"/><path d="M60.672 60.772L47.655 86.62 20.14 90.418z" fill="#992d1b"/><path d="M60.672 60.772l19.844-1.722-1.048-15.067-18.796 16.79" fill="#ce3f35"/><path d="M80.516 59.05l7.83 16.158L60.67 60.772z" fill="#e5453c"/><path d="M88.345 75.208l35.194-17.924-43.024 1.766z" fill="#a33122"/><path d="M80.516 59.05l21.366-22.158 21.657 20.392-43.024 1.766" fill="none"/><path d="M125.72 100.133l5.93-16.502-15.058-2.765z" fill="#982d1b"/><path d="M131.65 83.63l30.144-16.09-22.24-11.567z" fill="#992d1b"/><path d="M131.65 83.63l-24.026-7.792 31.93-19.865z" fill="#c63d32"/><path d="M139.554 55.973l-16.015 1.31-15.916 18.555zM139.554 55.973l36.652 10.395 11.836-15.147z" fill="#a33222"/><path d="M80.516 59.05l21.366-22.158 21.657 20.392z" fill="#d34136"/><path d="M123.54 57.284l16.014-1.31L152.65 44.85z" fill="#932a16" fill-opacity=".995"/><path d="M152.65 44.85l-6.17-1.754-22.94 14.188z" fill="#ce4035"/><path d="M146.48 43.096l-24.2 1.29 1.26 12.898z" fill="#e5453c"/><path d="M122.28 44.386l27.95-11.407 14.434-15.78z" fill="#a83425"/><path d="M164.664 17.2L176.034 0 122.28 44.386z" fill="#e6463d" fill-opacity=".957"/><path d="M146.48 43.096l3.75-10.117 18.39-3.058-22.14 13.174" fill="#ce4035" fill-opacity=".889"/><path d="M168.62 29.922l3.868-12.16 10.618-2.338z" fill="#e5453d"/><path d="M139.554 55.973l55.3-17.402-42.205 6.28z" fill="#e5453d" fill-opacity=".94"/><path d="M194.855 38.57l-18.72-5.78-13.432 7.39z" fill="#a83425"/></svg>