<svg xmlns="http://www.w3.org/2000/svg" width="766.145" height="400.623" viewBox="0 0 202.7093 105.99825"><path d="M202.71 41.28l-3.885 20.555-26.69 6.51-36.164-.643-21.585 13.007 1.768-15-25.11 17.805-17.493-24.06-1.158 12.91-61.06 33.633L25.7 91.208 42.81 78.382l-18.64-.41 24.204-8.835-5.736-2.87L0 64.603l31.892 4.39-14.572 4.766L0 64.602l57.57-6.83-48.527-4.335 14.442-12.686 34.085 17.02-19.706-15.495L70.47 32.062l8.892-15.114 52.005.738 13.824-14.55s16.734.895 16.745.99L192.47 0zM132.71 25.34L111.46 48.38l21.328-18.268 18.782 10.403zM84.754 37.574L70.47 32.062 92.634 44.18l-13.27-27.232zm66.816 2.94l-15.6 27.187 17.59-22.982 27.742 1.376zM92.633 44.18L73.55 59.456l37.91-11.077zm-44.26 24.958c-1.95 3.297-5.562 9.245-5.562 9.245l29.582-6.02zm-24.202 8.835l-6.056 11.23-10.867.326z" fill="#e5453c" fill-opacity=".854"/><path d="M200.424 53.14l-9.192 10.632-8.35-17.742 19.302-2.148z" fill="none"/><path d="M202.71 41.28l-19.828 4.75 15.943 15.805z" fill="none"/><path d="M191.232 63.772l-8.35-17.742 19.827-4.75-3.885 20.555z" fill="none"/><path d="M198.825 61.835l-7.593 1.937-8.35-17.742z" fill="none"/><path d="M200.424 53.14l-9.42 10.604 7.82-1.91z" fill="#e64638"/><path d="M191.003 63.744l-9.7-17.648 21.406-4.815-2.286 11.86z" fill="#ce3f35"/><path d="M202.71 41.28l-11.212-7.675-10.196 12.49z" fill="#9a2e1c"/><path d="M191.498 33.605l-12.89-5.34-27.038 12.25 29.732 5.58z" fill="#982d1b" fill-opacity=".995"/><path d="M202.71 41.28l-4.032-16.234-7.18 8.56z" fill="none"/><path d="M198.678 25.046l-7.18 8.56 11.21 7.675z" fill="#e6463d"/><path d="M198.678 25.046l-.917-3.692-19.153 6.91 12.89 5.34z" fill="none"/><path d="M178.607 28.265l16.817-16.474 2.337 9.564z" fill="#9a2e1c"/><path d="M198.678 25.046l-.917-3.692-19.153 6.91 12.89 5.34z" fill="#ce4035"/><path d="M195.424 11.79l-16.817 16.475-16.672-24.14 32.44 3.534z" fill="#d34036"/><path d="M194.375 7.66L192.47 0l-30.535 4.126z" fill="#982d1b"/><path d="M161.935 4.126l16.672 24.14-45.895-2.927z" fill="#a33222"/><path d="M132.712 25.34l12.48-22.205 16.743.99z" fill="none"/><path d="M132.712 25.34l-1.345-7.653L145.19 3.135 132.713 25.34" fill="#992d1b"/><path d="M132.712 25.34l-1.345-7.653-52.005-.74z" fill="#922a16"/><path d="M161.935 4.126l-16.744-.99-12.478 22.203z" fill="#7e1f00" fill-opacity=".981"/><path d="M132.712 25.34l-40.08 18.84-13.27-27.232z" fill="#d34137" fill-opacity=".935"/><path d="M92.633 44.18l18.827 4.2 21.252-23.04-40.08 18.84" fill="#e6463d"/><path d="M178.607 28.265l-27.037 12.25-18.858-15.176z" fill="#cf4034"/><path d="M151.57 40.515l-40.11 7.864 21.328-18.268z" fill="#992d1b"/><path d="M111.46 48.38L135.97 67.7l15.6-27.187z" fill="#ce4035"/><path d="M181.302 46.096l-45.33 21.606 36.162.642 18.87-4.6z" fill="#a43222" fill-opacity=".899"/><path d="M135.97 67.702l17.59-22.982 27.742 1.376z" fill="#992d1b"/><path d="M135.97 67.702l-19.817-1.993-1.768 15L135.97 67.7" fill="#ce3f35"/><path d="M116.153 65.71l-4.693-17.33L135.97 67.7z" fill="#e5453c"/><path d="M111.46 48.38L73.55 59.455l42.603 6.253z" fill="#a33122"/><path d="M116.153 65.71l-25.11 17.805-17.493-24.06 42.603 6.254" fill="none"/><path d="M79.362 16.948l-8.89 15.114 14.282 5.513z" fill="#982d1b"/><path d="M70.47 32.062L37.865 42.277 57.57 57.772z" fill="#992d1b"/><path d="M70.47 32.062L92.634 44.18 57.57 57.772z" fill="#c63d32"/><path d="M57.57 57.772l15.98 1.684L92.633 44.18zM57.57 57.772l-34.085-17.02L9.043 53.438z" fill="#a33222"/><path d="M116.153 65.71l-25.11 17.805-17.493-24.06z" fill="#d34136"/><path d="M73.55 59.456l-15.98-1.684-14.932 8.496z" fill="#932a16" fill-opacity=".995"/><path d="M42.638 66.268l5.736 2.87 25.176-9.682z" fill="#ce4035"/><path d="M48.374 69.138l24.018 3.226 1.158-12.908z" fill="#e5453c"/><path d="M72.392 72.364l-29.58 6.02-17.114 12.823z" fill="#a83425"/><path d="M25.698 91.207l-14.365 14.79 61.06-33.633z" fill="#e6463d" fill-opacity=".957"/><path d="M48.374 69.138l-5.563 9.245-18.64-.41 24.204-8.835" fill="#ce4035" fill-opacity=".889"/><path d="M24.17 77.973l-6.056 11.23-10.867.326z" fill="#e5453d"/><path d="M57.57 57.772L0 64.602l42.638 1.666z" fill="#e5453d" fill-opacity=".94"/><path d="M0 64.603l17.32 9.156 14.572-4.768z" fill="#a83425"/></svg>